<svg width="93" height="93" viewBox="0 0 93 93" fill="none" xmlns="http://www.w3.org/2000/svg">
<circle cx="46.4667" cy="46.4667" r="46.0133" fill="#ECE9EC" stroke="white" stroke-width="0.906667"/>
<path d="M72.5057 46.9544C72.5057 44.8185 72.3284 43.2599 71.9445 41.6436H46.9858V51.2838H61.636C61.3408 53.6796 59.7458 57.2875 56.2013 59.7119L56.1516 60.0347L64.0431 66.0087L64.5898 66.062C69.611 61.5304 72.5057 54.8629 72.5057 46.9544Z" fill="#4285F4"/>
<path d="M46.9859 72.3543C54.1633 72.3543 60.1887 70.0452 64.5899 66.0621L56.2013 59.712C53.9566 61.2418 50.9437 62.3097 46.9859 62.3097C39.9562 62.3097 33.9897 57.7783 31.8629 51.5149L31.5511 51.5408L23.3455 57.7464L23.2382 58.0379C27.6096 66.5238 36.5888 72.3543 46.9859 72.3543Z" fill="#34A853"/>
<path d="M31.8629 51.5149C31.3017 49.8985 30.9769 48.1666 30.9769 46.3771C30.9769 44.5875 31.3017 42.8558 31.8334 41.2394L31.8185 40.8952L23.51 34.5898L23.2382 34.7162C21.4365 38.2376 20.4027 42.192 20.4027 46.3771C20.4027 50.5623 21.4365 54.5165 23.2382 58.0379L31.8629 51.5149Z" fill="#FBBC05"/>
<path d="M46.9859 30.4444C51.9776 30.4444 55.3447 32.5515 57.2647 34.3123L64.7671 27.1541C60.1594 22.9689 54.1633 20.4 46.9859 20.4C36.5888 20.4 27.6096 26.2304 23.2382 34.7162L31.8334 41.2394C33.9898 34.9761 39.9562 30.4444 46.9859 30.4444Z" fill="#EB4335"/>
</svg>
